<svg height="511pt" viewBox="-47 1 511 511.999" width="511pt" xmlns="http://www.w3.org/2000/svg"><path d="m55.847656 364.589844h322.394532v72.675781h-49.863282s-5.507812 14.53125-10.859375 19.882813c-7.269531 7.269531-17.308593 11.761718-28.390625 11.761718-19.25 0-35.332031-13.546875-39.246094-31.632812l-85.265624 9.113281c-1.957032 4.007813-4.570313 7.636719-7.683594 10.757813-7.257813 7.269531-17.296875 11.761718-28.386719 11.761718-15.847656 0-29.546875-9.175781-36.074219-22.507812" fill="#cabfde"/><path d="m208.839844 7.605469c-110.863282 0-200.734375 89.871093-200.734375 200.734375v255.910156c0 22.171875 17.976562 40.144531 40.148437 40.144531s40.144532-17.972656 40.144532-40.144531v-.203125c0-22.171875 17.976562-40.148437 40.148437-40.148437s40.144531 17.976562 40.144531 40.148437v.203125c0 22.171875 17.976563 40.144531 40.148438 40.144531s40.148437-17.972656 40.148437-40.144531v-18.453125c0-22.171875 17.972657-40.144531 40.144531-40.144531 22.171876 0 40.148438 17.972656 40.148438 40.144531v18.453125c0 22.171875 17.972656 40.144531 40.144531 40.144531s40.148438-17.972656 40.148438-40.144531v-255.910156c0-110.863282-89.871094-200.734375-200.734375-200.734375zm0 0" fill="#e7e8f0"/><path d="m208.839844 7.601562c-55.761719 0-100.96875 89.871094-100.96875 200.734376v221.285156c-11.660156 7.027344-19.46875 19.8125-19.46875 34.421875v.203125c0 11.082031-4.492188 21.117187-11.761719 28.386718-7.257813 7.269532-17.292969 11.761719-28.386719 11.761719-22.171875 0-40.148437-17.976562-40.148437-40.148437v-255.910156c0-110.863282 89.878906-200.734376 200.734375-200.734376zm0 0" fill="#cabfde"/><path d="m234.359375 294.230469c-16.4375 6.179687-34.601563 6.179687-51.039063 0-7.5625-2.84375-16.070312-.027344-20.289062 6.855469-.058594.097656-.121094.191406-.179688.289062-5.429687 8.867188-1.589843 20.597656 8.125 24.300781 24.367188 9.289063 51.355469 9.289063 75.722657 0 9.714843-3.703125 13.558593-15.433593 8.125-24.300781-.058594-.097656-.117188-.191406-.175781-.289062-4.21875-6.882813-12.726563-9.699219-20.289063-6.855469zm0 0" fill="#555a80"/><path d="m261.230469 275.914062c5.777343-6.195312 13.15625-11.058593 21.785156-13.851562 8.632813-2.792969 17.460937-3.179688 25.769531-1.542969 12.339844-13.234375 17.332032-32.585937 11.363282-51.023437-8.761719-27.066406-37.808594-41.90625-64.878907-33.144532-27.066406 8.761719-41.90625 37.804688-33.144531 64.875 5.96875 18.4375 21.351562 31.191407 39.105469 34.6875zm0 0" fill="#fff"/><path d="m156.449219 275.914062c-5.777344-6.195312-13.15625-11.058593-21.785157-13.851562-8.632812-2.792969-17.460937-3.179688-25.769531-1.542969-12.339843-13.234375-17.328125-32.585937-11.363281-51.023437 8.761719-27.066406 37.808594-41.90625 64.878906-33.144532 27.066406 8.761719 41.90625 37.804688 33.144532 64.875-5.96875 18.4375-21.351563 31.191407-39.105469 34.6875zm0 0" fill="#fff"/><path d="m287.558594 225.519531c0 9.617188-7.800782 17.414063-17.417969 17.414063s-17.414063-7.796875-17.414063-17.414063c0-9.621093 7.796876-17.417969 17.414063-17.417969s17.417969 7.796876 17.417969 17.417969zm0 0" fill="#555a80"/><path d="m164.953125 225.519531c0 9.617188-7.796875 17.414063-17.414063 17.414063-9.617187 0-17.417968-7.796875-17.417968-17.414063 0-9.621093 7.800781-17.417969 17.417968-17.417969 9.617188 0 17.414063 7.796876 17.414063 17.417969zm0 0" fill="#555a80"/><g fill="#1a1a1a"><path d="m168.269531 332.78125c13.082031 4.988281 26.824219 7.480469 40.570313 7.480469 13.742187 0 27.488281-2.496094 40.570312-7.480469 6.695313-2.554688 11.867188-7.925781 14.1875-14.746094 2.351563-6.898437 1.519532-14.421875-2.304687-20.660156l-.160157-.261719c-6.082031-9.921875-18.464843-14.128906-29.449218-10-14.730469 5.535157-30.957032 5.535157-45.6875 0-10.980469-4.128906-23.367188.074219-29.480469 10.050781l-.144531.238282c-3.804688 6.210937-4.640625 13.734375-2.289063 20.636718 2.320313 6.816407 7.492188 12.191407 14.1875 14.742188zm1.082031-27.453125.160157-.265625c1.6875-2.75 4.679687-4.320312 7.8125-4.320312 1.105469 0 2.230469.195312 3.316406.605468 18.183594 6.835938 38.210937 6.835938 56.394531 0 4.167969-1.570312 8.851563-.007812 11.117188 3.691406l.191406.308594c1.433594 2.34375 1.75 5.179688.859375 7.785156-.871094 2.558594-2.722656 4.488282-5.210937 5.4375-22.667969 8.644532-47.636719 8.644532-70.304688 0-2.492188-.949218-4.339844-2.878906-5.210938-5.4375-.886718-2.605468-.574218-5.441406.875-7.804687zm0 0"/><path d="m285.359375 269.296875c7.085937-2.292969 14.683594-2.75 21.957031-1.316406 2.582032.507812 5.242188-.351563 7.035156-2.277344 14.640626-15.710937 19.636719-38.144531 13.03125-58.550781-10.039062-31.011719-43.4375-48.078125-74.453124-38.039063-15.023438 4.867188-27.253907 15.289063-34.4375 29.351563-7.1875 14.0625-8.464844 30.078125-3.601563 45.101562 6.605469 20.40625 23.800781 35.660156 44.871094 39.808594.488281.097656.980469.144531 1.46875.144531 2.089843 0 4.109375-.859375 5.5625-2.417969 5.058593-5.429687 11.480469-9.511718 18.566406-11.804687zm-26.464844-1.769531c-13.902343-4.046875-25.03125-14.734375-29.535156-28.644532-3.609375-11.15625-2.664063-23.054687 2.675781-33.5 5.335938-10.445312 14.421875-18.1875 25.578125-21.796874 4.476563-1.449219 9.019531-2.140626 13.492188-2.140626 18.53125 0 35.800781 11.835938 41.808593 30.394532 4.5 13.90625 1.746094 29.089844-7.148437 40.515625-8.40625-.984375-16.996094-.148438-25.089844 2.472656s-15.542969 6.972656-21.78125 12.699219zm0 0"/><path d="m295.160156 225.519531c0-13.796875-11.222656-25.019531-25.019531-25.019531s-25.019531 11.222656-25.019531 25.019531c0 13.792969 11.222656 25.019531 25.019531 25.019531s25.019531-11.226562 25.019531-25.019531zm-25.019531 9.8125c-5.410156 0-9.8125-4.402343-9.8125-9.8125 0-5.410156 4.402344-9.8125 9.8125-9.8125s9.8125 4.402344 9.8125 9.8125c0 5.410157-4.402344 9.8125-9.8125 9.8125zm0 0"/><path d="m157.914062 283.375c21.074219-4.148438 38.269532-19.402344 44.875-39.808594 4.863282-15.023437 3.582032-31.039062-3.601562-45.105468-7.183594-14.0625-19.414062-24.484376-34.4375-29.347657s-31.042969-3.585937-45.105469 3.601563c-14.0625 7.183594-24.484375 19.414062-29.347656 34.4375-6.605469 20.40625-1.613281 42.839844 13.03125 58.550781 1.792969 1.925781 4.453125 2.785156 7.03125 2.277344 7.28125-1.433594 14.871094-.980469 21.960937 1.316406 7.085938 2.292969 13.503907 6.375 18.5625 11.800781 1.453126 1.558594 3.476563 2.417969 5.5625 2.417969.488282.003906.984376-.046875 1.46875-.140625zm-20.910156-28.546875c-5.902344-1.910156-12.0625-2.871094-18.226562-2.871094-2.292969 0-4.585938.132813-6.863282.398438-8.894531-11.425781-11.652343-26.609375-7.148437-40.515625 3.613281-11.160156 11.355469-20.246094 21.796875-25.582032 10.445312-5.335937 22.34375-6.285156 33.5-2.671874 11.160156 3.613281 20.246094 11.351562 25.582031 21.796874 5.335938 10.445313 6.285157 22.34375 2.671875 33.5-4.503906 13.910157-15.632812 24.597657-29.535156 28.644532-6.234375-5.726563-13.683594-10.078125-21.777344-12.699219zm0 0"/><path d="m172.558594 225.519531c0-13.796875-11.222656-25.019531-25.019532-25.019531-13.796874 0-25.019531 11.222656-25.019531 25.019531 0 13.792969 11.222657 25.019531 25.019531 25.019531 13.796876 0 25.019532-11.226562 25.019532-25.019531zm-25.019532 9.8125c-5.410156 0-9.8125-4.402343-9.8125-9.8125 0-5.410156 4.402344-9.8125 9.8125-9.8125 5.410157 0 9.8125 4.402344 9.8125 9.8125 0 5.410157-4.402343 9.8125-9.8125 9.8125zm0 0"/><path d="m392.523438 109.941406c-1.988282-3.699218-6.597657-5.089844-10.296876-3.101562-3.699218 1.984375-5.089843 6.59375-3.105468 10.292968 14.949218 27.847657 22.847656 59.382813 22.847656 91.203126v255.914062c0 17.941406-14.597656 32.542969-32.542969 32.542969-17.945312 0-32.542969-14.601563-32.542969-32.542969v-18.453125c0-26.328125-21.421874-47.75-47.75-47.75-26.332031 0-47.753906 21.421875-47.753906 47.75v18.453125c0 17.941406-14.59375 32.542969-32.542968 32.542969-17.945313 0-32.539063-14.601563-32.539063-32.542969v-.203125c0-26.332031-21.421875-47.753906-47.753906-47.753906-26.328125 0-47.75 21.421875-47.75 47.753906v.203125c0 17.941406-14.597657 32.542969-32.542969 32.542969s-32.542969-14.601563-32.542969-32.542969v-11.960938c0-4.199218-3.402343-7.605468-7.605469-7.605468-4.199218 0-7.601562 3.40625-7.601562 7.605468v11.960938c0 26.328125 21.421875 47.75 47.75 47.75 26.332031 0 47.75-21.421875 47.75-47.75v-.203125c0-.09375.007812-.1875.007812-.28125 8.660157 8.085937 20.15625 12.746094 32.535157 12.746094 12.195312 0 23.675781-4.542969 32.535156-12.816407 0 .117188.007813.234376.007813.347657v.203125c0 26.332031 21.421874 47.75 47.75 47.75 26.332031 0 47.753906-21.417969 47.753906-47.75v-.632813c8.636718 8.035157 20.171875 12.898438 32.539062 12.898438 12.1875 0 23.675782-4.546875 32.546875-12.828125v.5625c0 26.332031 21.421875 47.75 47.75 47.75 26.332031 0 47.753907-21.417969 47.753907-47.75v-255.90625c0-34.324219-8.527344-68.347656-24.65625-98.398438zm-240.972657 341.835938c-6.136719 6.144531-14.304687 9.53125-23.003906 9.53125-11.226563 0-21.375-5.628906-27.332031-14.890625 5.800781-8.964844 15.882812-14.914063 27.332031-14.914063 11.441406 0 21.515625 5.941406 27.320313 14.894532-1.246094 1.917968-2.671876 3.730468-4.316407 5.378906zm137.578125 9.527344c-14.652344 0-27.597656-9.996094-31.410156-23.996094 3.746094-13.839844 16.40625-24.054688 31.414062-24.054688 14.996094 0 27.648438 10.199219 31.402344 24.019532-1.472656 5.460937-4.34375 10.445312-8.394531 14.5-6.148437 6.148437-14.320313 9.53125-23.011719 9.53125zm0 0"/><path d="m8.105469 434.546875c4.199219 0 7.605469-3.40625 7.605469-7.605469v-218.601562c0-106.496094 86.636718-193.132813 193.128906-193.132813 30.652344 0 59.957031 6.96875 87.101562 20.710938 25.898438 13.109375 48.917969 32.273437 66.570313 55.421875 2.542969 3.339844 7.316406 3.984375 10.65625 1.4375 3.339843-2.546875 3.984375-7.320313 1.4375-10.660156-19.035157-24.960938-43.863281-45.628907-71.792969-59.769532-29.296875-14.828125-60.914062-22.347656-93.972656-22.347656-114.878906 0-208.339844 93.460938-208.339844 208.339844v218.601562c0 4.199219 3.40625 7.605469 7.605469 7.605469zm0 0"/></g></svg>