<svg height="512pt" viewBox="-68 0 512 512" width="512pt" xmlns="http://www.w3.org/2000/svg"><path d="m368.007812 454.503906c0 22.984375-15.28125 43.589844-37.585937 49.136719-2.199219.546875-4.664063.859375-7.484375.859375-22.535156 0-22.535156-20-45.066406-20s-22.53125 20-45.0625 20-22.53125-20-45.0625-20-22.53125 20-45.0625 20-22.53125-20-45.058594-20c-22.53125 0-22.53125 20-45.0625 20-2.816406 0-5.28125-.3125-7.484375-.859375-22.304687-5.542969-37.578125-26.152344-37.578125-49.132813v-266.753906c0-99.550781 80.703125-180.253906 180.253906-180.253906 99.550782 0 180.253906 80.703125 180.253906 180.253906zm0 0" fill="#efedee"/><path d="m87.5 454.507812v-266.753906c0-85.804687 59.953125-157.597656 140.253906-175.792968-12.867187-2.914063-26.253906-4.460938-40-4.460938-99.550781 0-180.253906 80.703125-180.253906 180.253906v266.753906c0 22.980469 15.277344 43.589844 37.578125 49.132813 2.203125.546875 4.667969.859375 7.484375.859375 22.359375 0 22.539062-19.6875 44.566406-19.988281-6.113281-8.523438-9.628906-18.988281-9.628906-30.003907zm0 0" fill="#d2d2d2"/><path d="m205.628906 150.800781c0 9.875-8.003906 17.878907-17.875 17.878907-9.875 0-17.875-8.003907-17.875-17.878907 0-9.871093 8-17.875 17.875-17.875 9.871094 0 17.875 8.003907 17.875 17.875zm0 0" fill="#273435"/><path d="m257.121094 166.367188h-11.355469c-4.144531 0-7.5-3.359376-7.5-7.5 0-4.144532 3.355469-7.5 7.5-7.5h11.355469c4.140625 0 7.5 3.355468 7.5 7.5 0 4.140624-3.359375 7.5-7.5 7.5zm0 0" fill="#fd6f71"/><path d="m129.742188 166.367188h-11.355469c-4.144531 0-7.5-3.359376-7.5-7.5 0-4.144532 3.355469-7.5 7.5-7.5h11.355469c4.140624 0 7.5 3.355468 7.5 7.5 0 4.140624-3.359376 7.5-7.5 7.5zm0 0" fill="#fd6f71"/><path d="m162.378906 150.800781c0 13.992188 11.382813 25.378907 25.375 25.378907 13.992188 0 25.375-11.386719 25.375-25.378907 0-13.992187-11.382812-25.375-25.375-25.375-13.992187 0-25.375 11.382813-25.375 25.375zm35.75 0c0 5.722657-4.652344 10.378907-10.375 10.378907s-10.375-4.65625-10.375-10.378907c0-5.71875 4.652344-10.375 10.375-10.375s10.375 4.65625 10.375 10.375zm0 0"/><path d="m243.941406 126.046875v11.351563c0 4.144531 3.359375 7.5 7.5 7.5 4.144532 0 7.5-3.355469 7.5-7.5v-11.351563c0-4.144531-3.355468-7.5-7.5-7.5-4.140625 0-7.5 3.355469-7.5 7.5zm0 0"/><path d="m116.5625 126.046875v11.351563c0 4.144531 3.359375 7.5 7.5 7.5 4.144531 0 7.5-3.355469 7.5-7.5v-11.351563c0-4.144531-3.355469-7.5-7.5-7.5-4.140625 0-7.5 3.355469-7.5 7.5zm0 0"/><path d="m368.007812 254.582031c4.140626 0 7.5-3.359375 7.5-7.5v-59.328125c0-103.527344-84.226562-187.753906-187.753906-187.753906s-187.753906 84.226562-187.753906 187.753906v266.753906c0 26.878907 17.792969 50.078126 43.269531 56.410157 2.886719.71875 6.011719 1.082031 9.292969 1.082031 14.113281 0 21.542969-6.59375 27.507812-11.890625 5.304688-4.707031 9.136719-8.109375 17.554688-8.109375 8.414062 0 12.246094 3.402344 17.550781 8.109375 5.96875 5.296875 13.394531 11.890625 27.511719 11.890625 14.113281 0 21.539062-6.59375 27.507812-11.890625 5.304688-4.707031 9.132813-8.109375 17.550782-8.109375 8.417968 0 12.25 3.402344 17.554687 8.109375 5.964844 5.296875 13.390625 11.890625 27.507813 11.890625 14.113281 0 21.542968-6.59375 27.507812-11.890625 5.304688-4.707031 9.136719-8.109375 17.554688-8.109375 8.417968 0 12.25 3.402344 17.554687 8.109375 5.96875 5.296875 13.398438 11.890625 27.511719 11.890625 3.28125 0 6.410156-.363281 9.296875-1.082031 25.476563-6.335938 43.273437-29.53125 43.273437-56.414063v-180.839844c0-4.140624-3.359374-7.5-7.5-7.5-4.144531 0-7.5 3.359376-7.5 7.5v180.839844c0 19.976563-13.117187 37.1875-31.894531 41.855469-1.730469.429687-3.585937.640625-5.675781.640625-8.417969 0-12.25-3.402344-17.554688-8.109375-5.96875-5.296875-13.398437-11.890625-27.511718-11.890625-14.113282 0-21.542969 6.59375-27.511719 11.890625-5.304687 4.707031-9.136719 8.109375-17.550781 8.109375-8.417969 0-12.25-3.402344-17.554688-8.109375-5.96875-5.296875-13.394531-11.890625-27.511718-11.890625-14.113282 0-21.539063 6.59375-27.507813 11.890625-5.304687 4.707031-9.132813 8.109375-17.550781 8.109375-8.417969 0-12.25-3.402344-17.550782-8.109375-5.96875-5.296875-13.394531-11.890625-27.507812-11.890625s-21.542969 6.59375-27.511719 11.890625c-5.304687 4.707031-9.136719 8.109375-17.554687 8.109375-2.085938 0-3.941406-.207031-5.667969-.636719-18.777344-4.667969-31.890625-21.878906-31.890625-41.855469v-266.753906c0-95.257812 77.496094-172.753906 172.753906-172.753906 95.253906 0 172.753906 77.496094 172.753906 172.753906v59.328125c0 4.140625 3.355469 7.5 7.5 7.5zm0 0"/></svg>