<svg width="22" height="22" viewBox="0 0 22 22" fill="none" xmlns="http://www.w3.org/2000/svg">
<path d="M20.1406 16.5312C19.3963 15.7812 17.5934 14.6867 16.7188 14.2456C15.5797 13.6718 15.4859 13.6249 14.5906 14.2901C13.9934 14.734 13.5964 15.1306 12.8975 14.9815C12.1986 14.8324 10.6799 13.992 9.35001 12.6663C8.02016 11.3407 7.13094 9.77791 6.98141 9.08135C6.83188 8.38478 7.235 7.99244 7.67469 7.39385C8.29438 6.5501 8.2475 6.40947 7.71782 5.27041C7.30485 4.38447 6.17844 2.59853 5.42563 1.85791C4.62032 1.06244 4.62032 1.20306 4.10141 1.41869C3.67896 1.59643 3.27367 1.81249 2.89063 2.06416C2.14063 2.56244 1.72438 2.97635 1.43328 3.59838C1.14219 4.22041 1.01141 5.67869 2.51469 8.40963C4.01797 11.1406 5.07266 12.537 7.25563 14.7138C9.4386 16.8907 11.1172 18.0612 13.5711 19.4374C16.6067 21.1376 17.7711 20.8062 18.395 20.5156C19.0189 20.2249 19.4347 19.8124 19.9339 19.0624C20.1862 18.68 20.4028 18.2752 20.5808 17.8531C20.7969 17.336 20.9375 17.336 20.1406 16.5312Z" stroke="#222222" stroke-width="2" stroke-miterlimit="10"/>
</svg>
