<svg width="78" height="78" viewBox="0 0 78 78" fill="none" xmlns="http://www.w3.org/2000/svg">
<circle cx="39" cy="39" r="39" fill="white"/>
<path d="M34.412 25.632C32.3667 25.632 30.46 25.8573 28.692 26.308C26.9587 26.724 25.4507 27.4173 24.168 28.388C22.8853 29.324 21.8627 30.572 21.1 32.132C20.372 33.692 20.008 35.5813 20.008 37.8C20.008 40.0533 20.372 41.96 21.1 43.52C21.8627 45.0453 22.8853 46.2933 24.168 47.264C25.4507 48.2347 26.9587 48.928 28.692 49.344C30.46 49.76 32.3667 49.968 34.412 49.968H40.08C42.5067 49.968 44.864 49.604 47.152 48.876C49.4747 48.1133 51.468 46.796 53.132 44.924L56.46 47.004C55.4893 48.356 54.38 49.448 53.132 50.28C51.884 51.0773 50.5493 51.684 49.128 52.1C47.7067 52.516 46.216 52.7933 44.656 52.932C43.1307 53.0707 41.6053 53.14 40.08 53.14H34.412C31.8813 53.14 29.524 52.88 27.34 52.36C25.1907 51.8053 23.3187 50.9213 21.724 49.708C20.164 48.46 18.9333 46.8653 18.032 44.924C17.1653 42.9827 16.732 40.608 16.732 37.8C16.732 34.992 17.1653 32.6173 18.032 30.676C18.9333 28.7347 20.164 27.1573 21.724 25.944C23.3187 24.696 25.1907 23.812 27.34 23.292C29.524 22.7373 31.8813 22.46 34.412 22.46H40.08C41.6053 22.46 43.1307 22.5293 44.656 22.668C46.216 22.8067 47.7067 23.084 49.128 23.5C50.5493 23.916 51.884 24.54 53.132 25.372C54.38 26.1693 55.4893 27.244 56.46 28.596L53.132 30.676C51.468 28.804 49.4747 27.504 47.152 26.776C44.864 26.0133 42.5067 25.632 40.08 25.632H34.412ZM40.08 28.544C42.576 28.544 44.864 29.012 46.944 29.948C49.024 30.8493 50.792 32.34 52.248 34.42L60.516 29.532C59.3373 27.5213 58.02 25.8747 56.564 24.592C55.108 23.2747 53.5133 22.252 51.78 21.524C50.0813 20.7613 48.244 20.2413 46.268 19.964C44.3267 19.6867 42.264 19.548 40.08 19.548H34.412C31.396 19.548 28.6227 19.8947 26.092 20.588C23.596 21.2467 21.4293 22.304 19.592 23.76C17.7893 25.216 16.368 27.1053 15.328 29.428C14.3227 31.716 13.82 34.5067 13.82 37.8C13.82 41.0933 14.3227 43.9013 15.328 46.224C16.368 48.512 17.7893 50.384 19.592 51.84C21.4293 53.296 23.596 54.3707 26.092 55.064C28.6227 55.7227 31.396 56.052 34.412 56.052H40.08C42.264 56.052 44.3267 55.9133 46.268 55.636C48.244 55.3587 50.0813 54.856 51.78 54.128C53.5133 53.3653 55.108 52.3427 56.564 51.06C58.02 49.7773 59.3373 48.1133 60.516 46.068L52.248 41.18C50.792 43.26 49.024 44.768 46.944 45.704C44.864 46.6053 42.576 47.056 40.08 47.056H34.412C32.852 47.056 31.3787 46.9 29.992 46.588C28.6053 46.276 27.392 45.7733 26.352 45.08C25.312 44.352 24.48 43.3987 23.856 42.22C23.232 41.0413 22.92 39.568 22.92 37.8C22.92 36.0667 23.232 34.6107 23.856 33.432C24.48 32.2533 25.312 31.3 26.352 30.572C27.4267 29.844 28.6573 29.324 30.044 29.012C31.4307 28.7 32.8867 28.544 34.412 28.544H40.08ZM21.62 56.728C19.644 54.9947 18.0667 53.3827 16.888 51.892C15.7093 50.3667 14.7907 48.876 14.132 47.42C13.4733 45.9293 13.04 44.404 12.832 42.844C12.624 41.284 12.52 39.6027 12.52 37.8C12.52 34.264 13.0573 31.2653 14.132 28.804C15.2067 26.308 16.7147 24.28 18.656 22.72C20.5973 21.16 22.9027 20.0333 25.572 19.34C28.276 18.612 31.2227 18.248 34.412 18.248H40.08C42.056 18.248 43.9453 18.3347 45.748 18.508C47.5853 18.6467 49.4053 19.0627 51.208 19.756C53.0107 20.4493 54.848 21.4893 56.72 22.876C58.592 24.2627 60.6027 26.1867 62.752 28.648C63.0987 29.0293 63.48 29.48 63.896 30C64.312 30.52 64.7107 31.0747 65.092 31.664C65.4733 32.2533 65.8547 32.86 66.236 33.484C66.6173 34.0733 66.964 34.628 67.276 35.148L57.136 41.128L53.184 37.176C51.9707 36.3787 50.7053 35.8067 49.388 35.46C48.0707 35.0787 46.7013 34.888 45.28 34.888H39.612C38.2253 34.888 36.908 35.0267 35.66 35.304C34.412 35.5813 33.3027 36.032 32.332 36.656C31.396 37.28 30.6507 38.112 30.096 39.152C29.5413 40.192 29.264 41.4747 29.264 43C29.264 43.832 29.3333 44.5253 29.472 45.08C30.2 45.3227 30.98 45.496 31.812 45.6C32.644 45.704 33.5107 45.756 34.412 45.756H40.08C42.368 45.756 44.5173 45.2707 46.528 44.3C48.5733 43.3293 50.376 41.7173 51.936 39.464L62.336 45.6L67.276 50.852C65.8893 53.2093 64.3813 55.1333 62.752 56.624C61.1573 58.1147 59.4413 59.276 57.604 60.108C55.7667 60.9747 53.8253 61.564 51.78 61.876C49.7347 62.2227 47.568 62.396 45.28 62.396H39.612C37.844 62.396 36.0933 62.2747 34.36 62.032C32.6613 61.824 31.0147 61.4773 29.42 60.992C27.86 60.5413 26.404 59.952 25.052 59.224C23.7347 58.5307 22.5907 57.6987 21.62 56.728Z" fill="black"/>
</svg>
