<?xml version="1.0" encoding="utf-8"?>
<!-- Generator: Adobe Illustrator 23.0.6, SVG Export Plug-In . SVG Version: 6.00 Build 0)  -->
<svg version="1.1" id="Layer_1" xmlns="http://www.w3.org/2000/svg" xmlns:xlink="http://www.w3.org/1999/xlink" x="0px" y="0px"
	 viewBox="0 0 256 256" style="enable-background:new 0 0 256 256;" xml:space="preserve">
<g>
	<g>
		<path d="M214,25v73.2c0,2.6-2.1,4.7-4.7,4.7s-4.7-2.1-4.7-4.7V25c0-8.6-7-15.7-15.7-15.7c-8.6,0-15.7,7-15.7,15.7v73.2
			c0,13.8-11.2,25-25,25c-13.8,0-25-11.2-25-25V25c0-8.6-7-15.7-15.7-15.7S92,16.4,92,25v73.2c0,13.8-11.2,25-25,25
			c-13.8,0-25-11.2-25-25V25c0-2.6,2.1-4.7,4.7-4.7c2.6,0,4.7,2.1,4.7,4.7v73.2c0,8.6,7,15.7,15.7,15.7c8.6,0,15.7-7,15.7-15.7V25
			c0-13.8,11.2-25,25-25c13.8,0,25,11.2,25,25v73.2c0,8.6,7,15.7,15.7,15.7c8.6,0,15.7-7,15.7-15.7V25c0-13.8,11.2-25,25-25
			C202.8,0,214,11.2,214,25z"/>
	</g>
</g>
<g>
	<g>
		<g>
			<path d="M47.1,203.6c0,6.7-2,11.9-5.9,15.5c-4,3.6-9.7,5.4-17.1,5.4c-5.1,0-9.6-0.9-13.4-2.8c-3.8-1.9-5.9-4.7-5.9-4.7
				c-1.3-1.8-1.2-4.5,0.3-6.1l3.4-3.8c1.5-1.6,3.6-1.4,4.7,0.4c0,0,0.6,1,3.1,2.6c2.5,1.5,5.1,2.3,7.9,2.3c2.9,0,5.1-0.7,6.6-2
				c1.5-1.3,2.2-3.3,2.2-5.9c0-2.3-1-4.3-3-6.1c-2-1.8-5.5-4.1-10.6-6.9c-5.5-3.1-9.5-6.2-11.7-9.4c-2.3-3.2-3.4-6.9-3.4-11.2
				c0-6,2-10.8,6-14.4s9.3-5.4,16.1-5.4c4.1,0,7.7,0.8,10.9,2.3c3.1,1.5,5.2,3.9,5.2,3.9c1.4,1.6,1.4,4.3-0.1,5.9l-3.1,3.4
				c-1.5,1.6-3.7,1.5-5-0.3c0,0,0,0-2-1.2c-2-1.2-4-1.8-6.2-1.8c-2.4,0-4.4,0.6-5.8,1.9c-1.4,1.3-2.1,2.8-2.1,4.7
				c0,3.7,6.8,8.7,6.8,8.7c1.8,1.3,3.7,2.6,4.3,2.9c0.6,0.3,3.2,1.9,5.1,3.1c0,0,6.7,4.3,9.1,7.6S47.1,199.1,47.1,203.6z"/>
		</g>
		<g>
			<path d="M68.6,219.1c0,2.2-1.8,4-4,4h-5.8c-2.2,0-4-1.8-4-4v-62.6c0-2.2,1.8-4,4-4h5.8c2.2,0,4,1.8,4,4V219.1z"/>
		</g>
		<g>
			<path d="M139.6,219.1c0,2.2-1.8,4-4,4h-5.5c-2.2,0-5-1.5-6.2-3.3l-28.3-41.1c-1.2-1.8-2.3-1.5-2.3,0.7v39.6c0,2.2-1.8,4-4,4h-5.5
				c-2.2,0-4-1.8-4-4v-62.6c0-2.2,1.8-4,4-4h5.5c2.2,0,5,1.5,6.2,3.3l28.3,40.9c1.2,1.8,2.3,1.5,2.3-0.7v-39.5c0-2.2,1.8-4,4-4h5.5
				c2.2,0,4,1.8,4,4V219.1z"/>
		</g>
		<g>
			<path d="M201.8,191.7c0,2.2-0.2,5.7-0.5,7.9c0,0-1.7,12.6-6.1,17.5c-4.4,5-10.8,7.4-19.1,7.4c-8.2,0-14.5-2.6-19-7.6
				c-4.5-5.1-6.2-17.3-6.2-17.3c-0.3-2.2-0.5-5.7-0.5-7.9v-35.2c0-2.2,1.8-4,4-4h6.3c2.2,0,4,1.8,4,4v37.6c0,2.2,0.2,5.7,0.5,7.9
				c0,0,0.5,4,2.5,6.4c2,2.3,4.8,3.5,8.6,3.5c3.9,0,6.8-1.1,8.7-3.4c1.9-2.3,2.4-6.5,2.4-6.5c0.3-2.2,0.5-5.7,0.5-7.9v-37.6
				c0-2.2,1.8-4,4-4h6.3c2.2,0,4,1.8,4,4V191.7z"/>
		</g>
		<g>
			<path d="M252.8,203.6c0,6.7-2,11.9-5.9,15.5c-4,3.6-9.7,5.4-17.1,5.4c-5.1,0-9.6-0.9-13.4-2.8c-3.8-1.9-5.9-4.7-5.9-4.7
				c-1.3-1.8-1.2-4.5,0.3-6.1l3.4-3.8c1.5-1.6,3.6-1.4,4.7,0.4c0,0,0.6,1,3.1,2.6c2.4,1.5,5.1,2.3,7.9,2.3c2.9,0,5.1-0.7,6.6-2
				c1.5-1.3,2.2-3.3,2.2-5.9c0-2.3-1-4.3-3-6.1c-2-1.8-5.5-4.1-10.6-6.9c-5.5-3.1-9.5-6.2-11.7-9.4c-2.3-3.2-3.4-6.9-3.4-11.2
				c0-6,2-10.8,6-14.4s9.3-5.4,16.1-5.4c4.1,0,7.7,0.8,10.9,2.3c3.1,1.5,5.2,3.9,5.2,3.9c1.4,1.6,1.4,4.3-0.1,5.9l-3.1,3.4
				c-1.5,1.6-3.7,1.5-5-0.3c0,0,0,0-2-1.2c-2-1.2-4-1.8-6.2-1.8c-2.4,0-4.4,0.6-5.8,1.9c-1.4,1.3-2.1,2.8-2.1,4.7
				c0,3.7,6.8,8.7,6.8,8.7c1.8,1.3,3.7,2.6,4.3,2.9s3.2,1.9,5.1,3.1c0,0,6.7,4.3,9.1,7.6S252.8,199.1,252.8,203.6z"/>
		</g>
	</g>
</g>
<g>
	<path d="M58,244.5l-1.7,1c-0.3-0.6-0.6-0.9-0.9-1.1c-0.3-0.2-0.7-0.3-1.2-0.3c-0.6,0-1.1,0.2-1.5,0.5c-0.4,0.3-0.6,0.7-0.6,1.2
		c0,0.7,0.5,1.2,1.5,1.7l1.4,0.6c1.1,0.5,2,1,2.5,1.7s0.8,1.5,0.8,2.5c0,1.3-0.4,2.4-1.3,3.2c-0.9,0.9-2,1.3-3.2,1.3
		c-1.2,0-2.2-0.4-3-1.1c-0.8-0.7-1.3-1.7-1.5-3.1l2.2-0.5c0.1,0.8,0.3,1.4,0.5,1.7c0.4,0.6,1.1,0.9,1.9,0.9c0.7,0,1.2-0.2,1.7-0.7
		c0.4-0.4,0.7-1,0.7-1.7c0-0.3,0-0.5-0.1-0.8c-0.1-0.2-0.2-0.4-0.4-0.6c-0.2-0.2-0.4-0.4-0.6-0.5s-0.6-0.3-0.9-0.5l-1.4-0.6
		c-1.9-0.8-2.9-2-2.9-3.6c0-1.1,0.4-1.9,1.2-2.7c0.8-0.7,1.8-1.1,3-1.1C55.8,242.1,57,242.9,58,244.5z"/>
	<path d="M66.8,242.4v8.5c0,1.2,0.2,2.1,0.6,2.7c0.6,0.8,1.4,1.2,2.5,1.2c1.1,0,1.9-0.4,2.5-1.2c0.4-0.5,0.6-1.4,0.6-2.7v-8.5h2.1
		v9.1c0,1.5-0.5,2.7-1.4,3.7c-1,1.1-2.3,1.6-3.8,1.6c-1.5,0-2.8-0.5-3.8-1.6c-0.9-1-1.4-2.2-1.4-3.7v-9.1H66.8z"/>
	<path d="M87,250.4l4.4,6h-2.6l-4-5.8h-0.4v5.8h-2.1v-14.1h2.5c1.9,0,3.2,0.3,4,1.1c0.9,0.8,1.4,1.8,1.4,3.1c0,1-0.3,1.9-0.9,2.6
		C88.7,249.8,87.9,250.2,87,250.4z M84.3,248.8H85c2,0,3-0.8,3-2.3c0-1.4-1-2.2-2.9-2.2h-0.8V248.8z"/>
	<path d="M104.2,244.4h-4.9v3.4h4.7v2h-4.7v6.7h-2.1v-14.1h7V244.4z"/>
	<path d="M110.4,256.5v-14.1h2.1c0.9,0,1.7,0.1,2.3,0.2c0.6,0.1,1,0.4,1.4,0.7c0.4,0.4,0.7,0.8,0.9,1.3c0.2,0.5,0.4,1.1,0.4,1.6
		c0,1-0.4,1.9-1.2,2.6c0.7,0.3,1.3,0.7,1.8,1.3c0.4,0.6,0.7,1.4,0.7,2.2c0,1.1-0.4,2-1.2,2.8c-0.5,0.5-1,0.8-1.6,1
		c-0.6,0.2-1.4,0.3-2.4,0.3H110.4z M112.6,248.4h0.7c0.8,0,1.4-0.2,1.7-0.5s0.6-0.9,0.6-1.5c0-0.7-0.2-1.2-0.6-1.5s-0.9-0.5-1.6-0.5
		h-0.7V248.4z M112.6,254.5h1.3c1,0,1.7-0.2,2.1-0.6c0.5-0.4,0.7-0.9,0.7-1.6c0-0.6-0.2-1.1-0.7-1.5c-0.4-0.4-1.2-0.6-2.4-0.6h-1.1
		V254.5z"/>
	<path d="M124.4,249.3c0-2,0.7-3.7,2.2-5.1c1.4-1.4,3.2-2.1,5.2-2.1c2,0,3.7,0.7,5.2,2.2c1.4,1.4,2.2,3.2,2.2,5.2
		c0,2-0.7,3.7-2.2,5.2c-1.5,1.4-3.2,2.1-5.3,2.1c-1.8,0-3.5-0.6-4.9-1.9C125.2,253.4,124.4,251.6,124.4,249.3z M126.6,249.4
		c0,1.6,0.5,2.8,1.6,3.8c1,1,2.2,1.5,3.6,1.5c1.5,0,2.7-0.5,3.7-1.5c1-1,1.5-2.3,1.5-3.8c0-1.5-0.5-2.8-1.5-3.8
		c-1-1-2.2-1.5-3.7-1.5c-1.5,0-2.7,0.5-3.7,1.5C127.1,246.6,126.6,247.9,126.6,249.4z"/>
	<path d="M153.2,253h-6l-1.6,3.4h-2.3l7-15l6.7,15h-2.3L153.2,253z M152.3,251l-2.1-4.8L148,251H152.3z"/>
	<path d="M167.3,250.4l4.4,6H169l-4-5.8h-0.4v5.8h-2.1v-14.1h2.5c1.9,0,3.2,0.3,4,1.1c0.9,0.8,1.4,1.8,1.4,3.1c0,1-0.3,1.9-0.9,2.6
		C168.9,249.8,168.2,250.2,167.3,250.4z M164.6,248.8h0.7c2,0,3-0.8,3-2.3c0-1.4-1-2.2-2.9-2.2h-0.8V248.8z"/>
	<path d="M177.5,256.5v-14.1h3c1.4,0,2.5,0.1,3.4,0.4c0.9,0.3,1.7,0.7,2.4,1.4c1.5,1.3,2.2,3.1,2.2,5.2c0,2.2-0.8,3.9-2.3,5.3
		c-0.8,0.7-1.6,1.1-2.4,1.4c-0.8,0.3-1.9,0.4-3.3,0.4H177.5z M179.6,254.5h1c1,0,1.7-0.1,2.4-0.3c0.6-0.2,1.2-0.6,1.7-1
		c1-1,1.6-2.2,1.6-3.7c0-1.5-0.5-2.8-1.6-3.8c-0.9-0.9-2.3-1.3-4.1-1.3h-1V254.5z"/>
	<path d="M202.8,244.5l-1.7,1c-0.3-0.6-0.6-0.9-0.9-1.1c-0.3-0.2-0.7-0.3-1.2-0.3c-0.6,0-1.1,0.2-1.5,0.5c-0.4,0.3-0.6,0.7-0.6,1.2
		c0,0.7,0.5,1.2,1.5,1.7l1.4,0.6c1.1,0.5,2,1,2.5,1.7c0.5,0.7,0.8,1.5,0.8,2.5c0,1.3-0.4,2.4-1.3,3.2c-0.9,0.9-2,1.3-3.2,1.3
		c-1.2,0-2.2-0.4-3-1.1c-0.8-0.7-1.3-1.7-1.5-3.1l2.2-0.5c0.1,0.8,0.3,1.4,0.5,1.7c0.4,0.6,1.1,0.9,1.9,0.9c0.7,0,1.2-0.2,1.7-0.7
		c0.4-0.4,0.7-1,0.7-1.7c0-0.3,0-0.5-0.1-0.8c-0.1-0.2-0.2-0.4-0.4-0.6c-0.2-0.2-0.4-0.4-0.6-0.5s-0.6-0.3-0.9-0.5l-1.4-0.6
		c-1.9-0.8-2.9-2-2.9-3.6c0-1.1,0.4-1.9,1.2-2.7c0.8-0.7,1.8-1.1,3-1.1C200.6,242.1,201.9,242.9,202.8,244.5z"/>
</g>
</svg>
