<?xml version="1.0" encoding="utf-8"?>
<!-- Generator: Adobe Illustrator 23.0.6, SVG Export Plug-In . SVG Version: 6.00 Build 0)  -->
<svg version="1.1" id="Layer_1" xmlns="http://www.w3.org/2000/svg" xmlns:xlink="http://www.w3.org/1999/xlink" x="0px" y="0px"
	 viewBox="0 0 512 180" style="enable-background:new 0 0 512 180;" xml:space="preserve">
<style type="text/css">
	.st0{fill:#FFFFFF;}
</style>
<g>
	<g>
		<g>
			<path d="M260.4,101.7c0,7.8-2.3,13.8-6.9,18c-4.6,4.2-11.2,6.3-19.8,6.3c-6,0-11.2-1.1-15.6-3.3c-4.4-2.2-7.2-5.9-7.2-5.9
				c-1.3-1.8-1.2-4.5,0.3-6.1l4.8-5.4c1.5-1.6,3.6-1.4,4.7,0.4c0,0,1,1.7,3.9,3.5c2.8,1.8,5.9,2.7,9.2,2.7c3.4,0,5.9-0.8,7.6-2.3
				c1.7-1.6,2.6-3.8,2.6-6.8c0-2.6-1.2-5-3.5-7.1c-2.3-2.1-6.4-4.8-12.3-8c-6.4-3.6-11-7.2-13.6-10.9s-4-8-4-13
				c0-7,2.3-12.6,6.9-16.7s10.8-6.2,18.7-6.2c4.8,0,9,0.9,12.6,2.7c3.6,1.8,6.5,5,6.5,5c1.4,1.6,1.4,4.3-0.1,5.9l-4.4,4.8
				c-1.5,1.6-3.7,1.5-5-0.3c0,0-0.4-0.6-2.7-1.9c-2.3-1.4-4.7-2.1-7.1-2.1c-2.8,0-5.1,0.7-6.7,2.2c-1.7,1.5-2.5,3.3-2.5,5.4
				c0,4.3,8.4,10.4,8.4,10.4c1.8,1.3,3.8,2.6,4.5,3s3.5,2.1,5.4,3.2c0,0,8.3,5.4,11.1,9.1C258.9,92,260.4,96.5,260.4,101.7z"/>
		</g>
		<g>
			<path d="M285.3,120.3c0,2.2-1.8,4-4,4h-8c-2.2,0-4-1.8-4-4V46.5c0-2.2,1.8-4,4-4h8c2.2,0,4,1.8,4,4V120.3z"/>
		</g>
		<g>
			<path d="M367.7,120.3c0,2.2-1.8,4-4,4H356c-2.2,0-5-1.5-6.2-3.3l-33.6-48.6c-1.2-1.8-2.3-1.5-2.3,0.7v47.2c0,2.2-1.8,4-4,4h-7.7
				c-2.2,0-4-1.8-4-4V46.5c0-2.2,1.8-4,4-4h7.7c2.2,0,5,1.5,6.2,3.3l33.5,48.4c1.2,1.8,2.3,1.5,2.3-0.7v-47c0-2.2,1.8-4,4-4h7.7
				c2.2,0,4,1.8,4,4V120.3z"/>
		</g>
		<g>
			<path d="M439.7,88.5c0,2.2-0.2,5.7-0.5,7.9c0,0-2,15.2-7.2,20.9c-5.1,5.8-12.5,8.6-22.1,8.6c-9.5,0-16.8-3-22-8.9
				c-5.2-5.9-7.3-20.7-7.3-20.7c-0.3-2.2-0.5-5.7-0.5-7.9v-42c0-2.2,1.8-4,4-4h8.5c2.2,0,4,1.8,4,4v44.8c0,2.2,0.2,5.7,0.5,7.9
				c0,0,0.7,5.3,2.9,8c2.3,2.7,5.6,4.1,9.9,4.1c4.5,0,7.9-1.3,10.1-4c2.2-2.6,2.8-8.1,2.8-8.1c0.3-2.2,0.5-5.7,0.5-7.9V46.5
				c0-2.2,1.8-4,4-4h8.5c2.2,0,4,1.8,4,4V88.5z"/>
		</g>
		<g>
			<path d="M498.8,101.7c0,7.8-2.3,13.8-6.9,18c-4.6,4.2-11.2,6.3-19.8,6.3c-6,0-11.2-1.1-15.6-3.3c-4.4-2.2-7.2-5.9-7.2-5.9
				c-1.3-1.8-1.2-4.5,0.3-6.1l4.8-5.4c1.5-1.6,3.6-1.4,4.7,0.4c0,0,1,1.7,3.9,3.5c2.8,1.8,5.9,2.7,9.2,2.7c3.4,0,5.9-0.8,7.6-2.3
				c1.7-1.6,2.6-3.8,2.6-6.8c0-2.6-1.2-5-3.5-7.1c-2.3-2.1-6.4-4.8-12.3-8c-6.4-3.6-11-7.2-13.6-10.9c-2.6-3.7-4-8-4-13
				c0-7,2.3-12.6,6.9-16.7s10.8-6.2,18.7-6.2c4.8,0,9,0.9,12.6,2.7c3.6,1.8,6.5,5,6.5,5c1.4,1.6,1.4,4.3-0.1,5.9l-4.4,4.8
				c-1.5,1.6-3.7,1.5-5-0.3c0,0-0.4-0.6-2.7-1.9c-2.3-1.4-4.7-2.1-7.1-2.1c-2.8,0-5.1,0.7-6.7,2.2c-1.7,1.5-2.5,3.3-2.5,5.4
				c0,4.3,8.4,10.4,8.4,10.4c1.8,1.3,3.8,2.6,4.5,3s3.5,2.1,5.4,3.2c0,0,8.3,5.4,11.1,9.1S498.8,96.5,498.8,101.7z"/>
		</g>
	</g>
</g>
<circle class="st0" cx="90.6" cy="90.1" r="88.6"/>
<g>
	<g>
		<path d="M144.3,67.2V113c0,1.6-1.3,2.9-2.9,2.9c-1.6,0-2.9-1.3-2.9-2.9V67.2c0-5.4-4.4-9.8-9.8-9.8c-5.4,0-9.8,4.4-9.8,9.8V113
			c0,8.6-7,15.6-15.6,15.6c-8.6,0-15.6-7-15.6-15.6V67.2c0-5.4-4.4-9.8-9.8-9.8c-5.4,0-9.8,4.4-9.8,9.8V113c0,8.6-7,15.6-15.6,15.6
			c-8.6,0-15.6-7-15.6-15.6V67.2c0-1.6,1.3-2.9,2.9-2.9c1.6,0,2.9,1.3,2.9,2.9V113c0,5.4,4.4,9.8,9.8,9.8c5.4,0,9.8-4.4,9.8-9.8
			V67.2c0-8.6,7-15.6,15.6-15.6c8.6,0,15.6,7,15.6,15.6V113c0,5.4,4.4,9.8,9.8,9.8c5.4,0,9.8-4.4,9.8-9.8V67.2
			c0-8.6,7-15.6,15.6-15.6C137.3,51.6,144.3,58.6,144.3,67.2z"/>
	</g>
</g>
<g>
	<path d="M220.9,142l-2,1.2c-0.4-0.6-0.7-1.1-1.1-1.3c-0.4-0.2-0.8-0.3-1.4-0.3c-0.7,0-1.3,0.2-1.7,0.6c-0.5,0.4-0.7,0.9-0.7,1.4
		c0,0.8,0.6,1.4,1.8,1.9l1.6,0.7c1.3,0.5,2.3,1.2,2.9,2c0.6,0.8,0.9,1.7,0.9,2.8c0,1.5-0.5,2.7-1.5,3.7c-1,1-2.3,1.5-3.8,1.5
		c-1.4,0-2.6-0.4-3.5-1.3c-0.9-0.8-1.5-2-1.7-3.5l2.5-0.6c0.1,1,0.3,1.6,0.6,2c0.5,0.7,1.2,1.1,2.2,1.1c0.8,0,1.4-0.3,1.9-0.8
		c0.5-0.5,0.8-1.2,0.8-2c0-0.3,0-0.6-0.1-0.9c-0.1-0.3-0.2-0.5-0.4-0.7c-0.2-0.2-0.4-0.4-0.7-0.6c-0.3-0.2-0.6-0.4-1.1-0.6l-1.6-0.7
		c-2.2-0.9-3.4-2.3-3.4-4.2c0-1.2,0.5-2.3,1.4-3.1c0.9-0.8,2.1-1.2,3.5-1.2C218.3,139.2,219.8,140.1,220.9,142z"/>
	<path d="M231.1,139.5v9.8c0,1.4,0.2,2.4,0.7,3.1c0.7,0.9,1.6,1.4,2.9,1.4c1.2,0,2.2-0.5,2.9-1.4c0.5-0.6,0.7-1.7,0.7-3.1v-9.8h2.5
		v10.5c0,1.7-0.5,3.1-1.6,4.3c-1.2,1.2-2.7,1.9-4.4,1.9s-3.2-0.6-4.4-1.9c-1.1-1.1-1.6-2.5-1.6-4.3v-10.5H231.1z"/>
	<path d="M254.5,148.9l5.1,7h-3l-4.7-6.7h-0.4v6.7h-2.5v-16.3h2.9c2.2,0,3.7,0.4,4.7,1.2c1.1,0.9,1.6,2.1,1.6,3.6c0,1.2-0.3,2.2-1,3
		C256.4,148.2,255.6,148.7,254.5,148.9z M251.4,147.1h0.8c2.3,0,3.5-0.9,3.5-2.7c0-1.7-1.1-2.5-3.4-2.5h-0.9V147.1z"/>
	<path d="M274.5,141.9h-5.7v3.9h5.5v2.3h-5.5v7.8h-2.5v-16.3h8.2V141.9z"/>
	<path d="M281.7,155.9v-16.3h2.5c1.1,0,2,0.1,2.6,0.3c0.7,0.2,1.2,0.5,1.7,0.9c0.5,0.4,0.8,0.9,1.1,1.6c0.3,0.6,0.4,1.3,0.4,1.9
		c0,1.2-0.4,2.2-1.3,3c0.9,0.3,1.6,0.8,2.1,1.6c0.5,0.7,0.8,1.6,0.8,2.6c0,1.3-0.5,2.4-1.4,3.2c-0.5,0.5-1.2,0.9-1.8,1.1
		c-0.7,0.2-1.7,0.3-2.8,0.3H281.7z M284.2,146.6h0.8c0.9,0,1.6-0.2,2-0.6c0.4-0.4,0.6-1,0.6-1.8c0-0.8-0.2-1.4-0.7-1.8
		c-0.4-0.4-1.1-0.6-1.9-0.6h-0.9V146.6z M284.2,153.6h1.5c1.1,0,1.9-0.2,2.5-0.7c0.6-0.5,0.8-1.1,0.8-1.8c0-0.7-0.3-1.3-0.8-1.8
		c-0.5-0.5-1.4-0.7-2.8-0.7h-1.2V153.6z"/>
	<path d="M297.9,147.6c0-2.3,0.8-4.3,2.5-5.9c1.7-1.7,3.7-2.5,6.1-2.5c2.3,0,4.3,0.8,6,2.5c1.7,1.7,2.5,3.7,2.5,6
		c0,2.4-0.8,4.3-2.5,6c-1.7,1.6-3.7,2.5-6.1,2.5c-2.1,0-4-0.7-5.7-2.2C298.8,152.4,297.9,150.3,297.9,147.6z M300.4,147.7
		c0,1.8,0.6,3.3,1.8,4.5c1.2,1.2,2.6,1.7,4.2,1.7c1.7,0,3.2-0.6,4.3-1.8c1.2-1.2,1.8-2.7,1.8-4.4c0-1.7-0.6-3.2-1.7-4.4
		c-1.2-1.2-2.6-1.8-4.3-1.8c-1.7,0-3.1,0.6-4.3,1.8C301,144.5,300.4,146,300.4,147.7z"/>
	<path d="M331.2,151.9h-7l-1.8,4h-2.7l8.1-17.4l7.8,17.4h-2.7L331.2,151.9z M330.2,149.6l-2.4-5.6l-2.5,5.6H330.2z"/>
	<path d="M347.5,148.9l5.1,7h-3l-4.7-6.7h-0.4v6.7H342v-16.3h2.9c2.2,0,3.7,0.4,4.7,1.2c1.1,0.9,1.6,2.1,1.6,3.6c0,1.2-0.3,2.2-1,3
		C349.5,148.2,348.6,148.7,347.5,148.9z M344.5,147.1h0.8c2.3,0,3.5-0.9,3.5-2.7c0-1.7-1.1-2.5-3.4-2.5h-0.9V147.1z"/>
	<path d="M359.4,155.9v-16.3h3.4c1.6,0,2.9,0.2,3.9,0.5c1,0.3,2,0.9,2.8,1.6c1.7,1.5,2.5,3.6,2.5,6.1c0,2.5-0.9,4.5-2.6,6.1
		c-0.9,0.8-1.8,1.3-2.8,1.6c-0.9,0.3-2.2,0.5-3.8,0.5H359.4z M361.9,153.6h1.1c1.1,0,2-0.1,2.8-0.3c0.7-0.2,1.4-0.6,2-1.2
		c1.2-1.1,1.8-2.6,1.8-4.3c0-1.8-0.6-3.2-1.8-4.4c-1.1-1-2.7-1.5-4.8-1.5h-1.1V153.6z"/>
	<path d="M388.7,142l-2,1.2c-0.4-0.6-0.7-1.1-1.1-1.3c-0.4-0.2-0.8-0.3-1.4-0.3c-0.7,0-1.3,0.2-1.7,0.6c-0.5,0.4-0.7,0.9-0.7,1.4
		c0,0.8,0.6,1.4,1.8,1.9l1.6,0.7c1.3,0.5,2.3,1.2,2.9,2c0.6,0.8,0.9,1.7,0.9,2.8c0,1.5-0.5,2.7-1.5,3.7c-1,1-2.3,1.5-3.8,1.5
		c-1.4,0-2.6-0.4-3.5-1.3c-0.9-0.8-1.5-2-1.7-3.5l2.5-0.6c0.1,1,0.3,1.6,0.6,2c0.5,0.7,1.2,1.1,2.2,1.1c0.8,0,1.4-0.3,1.9-0.8
		c0.5-0.5,0.8-1.2,0.8-2c0-0.3,0-0.6-0.1-0.9c-0.1-0.3-0.2-0.5-0.4-0.7c-0.2-0.2-0.4-0.4-0.7-0.6c-0.3-0.2-0.7-0.4-1.1-0.6l-1.6-0.7
		c-2.2-0.9-3.4-2.3-3.4-4.2c0-1.2,0.5-2.3,1.4-3.1c0.9-0.8,2.1-1.2,3.5-1.2C386.2,139.2,387.7,140.1,388.7,142z"/>
</g>
</svg>
