<?xml version="1.0" encoding="utf-8"?>
<!-- Generator: Adobe Illustrator 23.0.6, SVG Export Plug-In . SVG Version: 6.00 Build 0)  -->
<svg version="1.1" id="Layer_1" xmlns="http://www.w3.org/2000/svg" xmlns:xlink="http://www.w3.org/1999/xlink" x="0px" y="0px"
	 viewBox="0 0 256 256" style="enable-background:new 0 0 256 256;" xml:space="preserve">
<style type="text/css">
	.st0{fill:#FFFFFF;}
</style>
<circle class="st0" cx="127.4" cy="128" r="128"/>
<g>
	<g>
		<path d="M205,95v66c0,2.3-1.9,4.2-4.2,4.2s-4.2-1.9-4.2-4.2V95c0-7.8-6.3-14.1-14.1-14.1c-7.8,0-14.1,6.3-14.1,14.1v66
			c0,12.4-10.1,22.6-22.6,22.6c-12.4,0-22.6-10.1-22.6-22.6V95c0-7.8-6.3-14.1-14.1-14.1S94.9,87.2,94.9,95v66
			c0,12.4-10.1,22.6-22.6,22.6c-12.4,0-22.6-10.1-22.6-22.6V95c0-2.3,1.9-4.2,4.2-4.2c2.3,0,4.2,1.9,4.2,4.2v66
			c0,7.8,6.3,14.1,14.1,14.1c7.8,0,14.1-6.3,14.1-14.1V95c0-12.4,10.1-22.6,22.6-22.6c12.4,0,22.6,10.1,22.6,22.6v66
			c0,7.8,6.3,14.1,14.1,14.1c7.8,0,14.1-6.3,14.1-14.1V95c0-12.4,10.1-22.6,22.6-22.6C194.9,72.5,205,82.6,205,95z"/>
	</g>
</g>
</svg>
