<svg height="512pt" viewBox="0 -5 512.00009 512" width="512pt" xmlns="http://www.w3.org/2000/svg"><path d="m435.296875 271.265625-17.328125-12.453125-54.105469-38.859375-67.214843-48.292969s6.019531-37.628906 36.292968-78.304687c24.226563-32.574219 64.011719-67.070313 128.722656-85.746094 0 0 111.816407 125.484375-26.367187 263.65625zm0 0" fill="#353959"/><path d="m461.664062 7.617188s-89.832031 66.410156-94.710937 189.449218c-.363281 9.066406-1.417969 16.636719-3.089844 22.894532l-67.214843-48.292969s19.523437-122.058594 165.015624-164.050781zm0 0" fill="#555a80"/><path d="m76.691406 271.269531 71.433594-51.308593 67.21875-48.292969s-19.527344-122.058594-165.019531-164.050781c0 0-111.816407 125.484374 26.367187 263.652343zm0 0" fill="#353959"/><path d="m50.324219 7.617188s89.832031 66.410156 94.710937 189.449218c.363282 9.066406 1.417969 16.636719 3.089844 22.894532l67.214844-48.292969c.003906 0-19.523438-122.058594-165.015625-164.050781zm0 0" fill="#555a80"/><path d="m412.3125 402.914062-101.777344 73.945313c-16.257812 11.808594-35.40625 17.714844-54.535156 17.714844-19.148438 0-38.292969-5.90625-54.550781-17.714844l-2.535157-1.835937-90.203124-65.546876-9.039063-6.5625c-32.519531-23.632812-46.125-65.519531-33.714844-103.746093l34.828125-107.160157 4.054688-12.492187c12.425781-38.238281 48.054687-64.128906 88.25-64.128906h125.804687c40.207031 0 75.835938 25.890625 88.261719 64.128906l17.976562 55.351563 20.890626 64.300781c12.429687 38.226562-1.179688 80.113281-33.710938 103.746093zm0 0" fill="#555a80"/><path d="m256 494.574219c-19.140625 0-38.292969-5.902344-54.554688-17.714844l-2.523437-1.832031-90.210937-65.554688-9.042969-6.558594c-32.511719-23.632812-46.117188-65.523437-33.710938-103.746093l34.828125-107.160157 4.054688-12.492187c12.429687-38.242187 48.054687-64.125 88.253906-64.125h25.039062c-24.1875 0-45.632812 25.882813-53.113281 64.125l-2.433593 12.492187-20.964844 107.160157c-7.472656 38.222656.71875 80.113281 20.285156 103.746093l5.445312 6.558594 54.289063 65.554688 1.53125 1.832031c9.785156 11.8125 21.300781 17.714844 32.828125 17.714844zm0 0" fill="#353959"/><path d="m269.855469 356.847656h-27.71875c-8.160157 0-14.777344-6.613281-14.777344-14.773437v-2.265625c0-8.160156 6.617187-14.773438 14.777344-14.773438h27.71875c8.160156 0 14.773437 6.613282 14.773437 14.773438v2.265625c0 8.160156-6.613281 14.773437-14.773437 14.773437zm0 0" fill="#283242"/><path d="m186 380.351562c0 38.65625 31.339844 69.996094 69.996094 69.996094s69.996094-31.339844 69.996094-69.996094zm0 0" fill="#f96eb3"/><path d="m324.644531 328.257812c6.09375-6.535156 13.878907-11.667968 22.984375-14.613281 9.105469-2.949219 18.421875-3.355469 27.191406-1.628906 13.015626-13.964844 18.28125-34.378906 11.984376-53.832031-9.242188-28.558594-39.890626-44.214844-68.449219-34.972656-28.558594 9.246093-44.214844 39.890624-34.96875 68.449218 6.296875 19.453125 22.527343 32.910156 41.257812 36.597656zm0 0" fill="#fff"/><path d="m187.347656 328.257812c-6.09375-6.535156-13.878906-11.667968-22.984375-14.613281-9.105469-2.949219-18.421875-3.355469-27.191406-1.628906-13.015625-13.964844-18.28125-34.378906-11.984375-53.832031 9.242188-28.558594 39.890625-44.214844 68.449219-34.972656 28.558593 9.246093 44.214843 39.890624 34.96875 68.449218-6.296875 19.453125-22.527344 32.910156-41.257813 36.597656zm0 0" fill="#fff"/><path d="m352.421875 275.085938c0 10.148437-8.230469 18.375-18.378906 18.375-10.148438 0-18.375-8.226563-18.375-18.375 0-10.148438 8.226562-18.375 18.375-18.375 10.148437 0 18.378906 8.226562 18.378906 18.375zm0 0" fill="#f96eb3"/><path d="m196.324219 275.085938c0 10.148437-8.226563 18.375-18.375 18.375-10.148438 0-18.378907-8.226563-18.378907-18.375 0-10.148438 8.230469-18.375 18.378907-18.375 10.148437 0 18.375 8.226562 18.375 18.375zm0 0" fill="#f96eb3"/><g fill="#1a1a1a"><path d="m242.136719 317.429688c-12.339844 0-22.378907 10.039062-22.378907 22.378906v2.265625c0 12.339843 10.039063 22.378906 22.378907 22.378906h27.71875c12.339843 0 22.378906-10.039063 22.378906-22.378906v-2.265625c0-12.339844-10.039063-22.378906-22.378906-22.378906zm34.890625 22.378906v2.265625c0 3.953125-3.21875 7.171875-7.171875 7.171875h-27.71875c-3.957031 0-7.171875-3.21875-7.171875-7.171875v-2.265625c0-3.953125 3.214844-7.171875 7.171875-7.171875h27.71875c3.953125 0 7.171875 3.214843 7.171875 7.171875zm0 0"/><path d="m373.351562 319.476562c2.578126.507813 5.238282-.351562 7.03125-2.273437 15.347657-16.464844 20.578126-39.976563 13.660157-61.363281-10.523438-32.5-45.53125-50.382813-78.027344-39.863282-15.746094 5.097657-28.5625 16.019532-36.089844 30.757813-7.53125 14.734375-8.871093 31.523437-3.773437 47.265625 6.921875 21.386719 24.941406 37.371094 47.023437 41.71875.488281.09375.980469.140625 1.46875.140625 2.089844 0 4.109375-.859375 5.5625-2.417969 5.386719-5.777344 12.222657-10.121094 19.765625-12.5625 7.546875-2.445312 15.628906-2.925781 23.378906-1.402344zm-51.058593.398438c-14.910157-4.257812-26.855469-15.671875-31.671875-30.558594-3.847656-11.878906-2.835938-24.546875 2.847656-35.664062 5.679688-11.121094 15.351562-19.363282 27.230469-23.207032 4.765625-1.542968 9.605469-2.277343 14.363281-2.277343 19.730469 0 38.113281 12.597656 44.507812 32.355469 4.820313 14.882812 1.832032 31.136718-7.753906 43.324218-8.882812-1.078125-17.96875-.207031-26.527344 2.5625-8.558593 2.769532-16.425781 7.386719-22.996093 13.464844zm0 0"/><path d="m334.046875 249.109375c-14.328125 0-25.980469 11.652344-25.980469 25.976563 0 14.328124 11.652344 25.980468 25.980469 25.980468 14.324219 0 25.976563-11.652344 25.976563-25.980468 0-14.324219-11.652344-25.976563-25.976563-25.976563zm0 36.75c-5.941406 0-10.773437-4.832031-10.773437-10.773437 0-5.9375 4.832031-10.769532 10.773437-10.769532 5.9375 0 10.769531 4.832032 10.769531 10.769532 0 5.941406-4.832031 10.773437-10.769531 10.773437zm0 0"/><path d="m195.976562 215.976562c-15.742187-5.09375-32.53125-3.757812-47.265624 3.773438-14.738282 7.527344-25.660157 20.347656-30.757813 36.089844-6.921875 21.386718-1.691406 44.898437 13.65625 61.359375 1.792969 1.925781 4.453125 2.785156 7.03125 2.277343 7.75-1.527343 15.835937-1.042968 23.378906 1.402344 7.546875 2.441406 14.378907 6.785156 19.765625 12.5625 1.453125 1.558594 3.472656 2.417969 5.5625 2.417969.488282 0 .980469-.046875 1.46875-.140625 22.082032-4.347656 40.101563-20.335938 47.023438-41.71875 5.097656-15.742188 3.757812-32.53125-3.769532-47.269531-7.53125-14.734375-20.347656-25.65625-36.09375-30.753907zm25.394532 73.339844c-4.816406 14.882813-16.761719 26.300782-31.671875 30.558594-6.570313-6.078125-14.4375-10.695312-22.996094-13.464844-6.183594-2.003906-12.640625-3.011718-19.101563-3.011718-2.480468 0-4.960937.148437-7.425781.449218-9.585937-12.1875-12.574219-28.441406-7.757812-43.324218 3.847656-11.878907 12.089843-21.550782 23.210937-27.230469 11.121094-5.683594 23.785156-6.691407 35.664063-2.847657 11.882812 3.84375 21.550781 12.085938 27.230469 23.207032 5.683593 11.121094 6.695312 23.785156 2.847656 35.664062zm0 0"/><path d="m177.949219 249.109375c-14.328125 0-25.980469 11.652344-25.980469 25.976563 0 14.328124 11.652344 25.980468 25.980469 25.980468 14.324219 0 25.976562-11.652344 25.976562-25.980468 0-14.324219-11.652343-25.976563-25.976562-25.976563zm0 36.75c-5.941407 0-10.773438-4.832031-10.773438-10.773437 0-5.9375 4.832031-10.769532 10.773438-10.769532 5.9375 0 10.769531 4.832032 10.769531 10.769532 0 5.941406-4.832031 10.773437-10.769531 10.773437zm0 0"/><path d="m496.644531 51.363281c-1.636719-3.867187-6.101562-5.671875-9.96875-4.039062-3.863281 1.636719-5.675781 6.101562-4.039062 9.96875 20.21875 47.769531 28.480469 120.210937-42.800781 198.207031l-25.449219-78.335938c-5.660157-17.421874-15.71875-32.429687-28.703125-43.996093 19.699218-62.4375 59.996094-101.867188 74.84375-114.773438 2.570312 3.445313 6 8.351563 9.726562 14.554688 2.160156 3.601562 6.832032 4.765625 10.433594 2.605469 3.597656-2.160157 4.765625-6.832032 2.601562-10.433594-8.503906-14.164063-15.652343-22.238282-15.953124-22.574219-1.945313-2.1875-4.972657-3.0625-7.785157-2.246094-56.519531 16.316407-101.171875 46.097657-132.707031 88.515625-4.546875 6.113282-8.777344 12.480469-12.660156 18.964844h-116.347656c-22.152344-37.019531-65.035157-84.277344-145.40625-107.472656-2.8125-.808594-5.839844.066406-7.785157 2.25-1.1875 1.332031-29.226562 33.226562-40.28125 82.972656-6.519531 29.335938-5.730469 58.757812 2.347657 87.453125 9.675781 34.378906 29.882812 67.679687 60.074218 99.039063l-8.058594 24.796874c-13.472656 41.488282 1.183594 86.597657 36.476563 112.246094l38.5625 28.011719c3.394531 2.46875 8.152344 1.714844 10.621094-1.683594 2.46875-3.394531 1.714843-8.148437-1.683594-10.617187l-38.5625-28.015625c-29.945313-21.765625-42.382813-60.042969-30.953125-95.246094l38.882812-119.652344c11.445313-35.214843 44.003907-58.875 81.019532-58.875h125.804687c37.023438 0 69.585938 23.660157 81.03125 58.875l38.867188 119.652344c11.445312 35.207031-.992188 73.480469-30.949219 95.246094l-101.777344 73.945312c-14.648437 10.640625-31.960937 16.265625-50.066406 16.265625-18.117188 0-35.4375-5.625-50.085938-16.269531l-38.71875-28.128906c-3.398437-2.46875-8.152343-1.714844-10.621093 1.679687-2.46875 3.398438-1.714844 8.152344 1.683593 10.621094l38.722657 28.136719c17.261719 12.539062 37.667969 19.167969 59.019531 19.167969 21.339844 0 41.742188-6.628907 59.003906-19.167969l101.78125-73.945313c35.300782-25.648437 49.960938-70.757812 36.472656-112.25l-8.058593-24.800781c37.167969-38.601563 59.058593-79.902344 65.082031-122.824219 4.582031-32.699218-.003906-65.609375-13.636719-97.828125zm-66.746093-24.316406c-18.535157 20.332031-42.261719 52.640625-57.042969 96.421875-12.296875-7.828125-26.328125-12.996094-41.261719-14.878906 2.371094-3.632813 4.859375-7.207032 7.453125-10.699219 22.941406-30.847656 53.410156-54.582031 90.851563-70.84375zm-249.503907 81.542969c-14.933593 1.882812-28.972656 7.054687-41.265625 14.886718-14.753906-43.710937-38.429687-75.988281-56.953125-96.328124 49.871094 21.800781 80.179688 53.84375 98.21875 81.441406zm-82.785156 68.578125-25.460937 78.347656c-25.226563-27.632813-42.261719-56.597656-50.6875-86.257813-7.433594-26.171874-8.238282-53.023437-2.390626-79.808593 7.53125-34.472657 24.320313-60.175781 32.40625-71.054688 14.855469 12.882813 55.089844 52.195313 74.824219 114.785157-12.976562 11.566406-23.03125 26.570312-28.691406 43.988281zm0 0"/><path d="m325.992188 372.746094h-139.992188c-4.199219 0-7.605469 3.40625-7.605469 7.605468 0 42.789063 34.8125 77.597657 77.601563 77.597657 42.789062 0 77.597656-34.808594 77.597656-77.597657 0-4.199218-3.402344-7.605468-7.601562-7.605468zm-69.996094 69.996094c-31.828125 0-58.167969-23.960938-61.929688-54.789063h20.871094v14.851563c0 4.199218 3.402344 7.601562 7.601562 7.601562 4.203126 0 7.605469-3.402344 7.605469-7.601562v-14.851563h51.703125v14.851563c0 4.199218 3.402344 7.601562 7.601563 7.601562s7.605469-3.402344 7.605469-7.601562v-14.851563h20.871093c-3.761719 30.832031-30.101562 54.789063-61.929687 54.789063zm0 0"/></g></svg>