<svg height="511pt" viewBox="0 -13 511.99799 511" width="511pt" xmlns="http://www.w3.org/2000/svg"><path d="m256.003906 129.667969 16.925782-35.503907c8.621093-24.625 9.714843-52.472656 1.472656-79.769531-15.40625-.285156-30.464844 1.398438-44.765625 4.945313 13.945312 22.757812 17.179687 50.058594 9.707031 74.914062" fill="#75bc83"/><path d="m362.890625 132.761719c0-83.945313-106.890625-31.660157-106.890625-31.660157s-106.890625-52.285156-106.890625 31.660157" fill="#75bc83"/><path d="m255.644531 100.925781v31.835938h-106.53125c0-81.121094 99.828125-35.019531 106.53125-31.835938zm0 0" fill="#279e5c"/><path d="m504.394531 303.972656c0 96.273438-78.039062 174.308594-174.308593 174.308594-12.707032 0-25.097657-1.359375-37.035157-3.945312h-74.089843c-11.9375 2.585937-24.332032 3.945312-37.046876 3.945312-96.269531 0-174.308593-78.035156-174.308593-174.308594 0-96.269531 78.039062-174.304687 174.308593-174.304687 12.714844 0 25.109376 1.359375 37.046876 3.945312h74.089843c11.9375-2.585937 24.328125-3.945312 37.035157-3.945312 96.269531 0 174.308593 78.035156 174.308593 174.304687zm0 0" fill="#f7a35f"/><path d="m258.683594 133.613281v340.722657h-39.722656c-11.9375 2.585937-24.332032 3.945312-37.046876 3.945312-96.269531 0-174.308593-78.035156-174.308593-174.308594 0-96.269531 78.039062-174.304687 174.308593-174.304687 12.714844 0 25.109376 1.359375 37.046876 3.945312zm0 0" fill="#f4702f"/><path d="m405.96875 303.972656c0 96.269532-78.039062 174.308594-174.304688 174.308594-96.265624 0-174.304687-78.039062-174.304687-174.308594 0-96.265625 78.039063-174.304687 174.304687-174.304687 96.265626 0 174.304688 78.039062 174.304688 174.304687zm0 0" fill="#f7a35f"/><path d="m430.308594 303.972656c0 96.269532-78.039063 174.308594-174.304688 174.308594-96.269531 0-174.308594-78.039062-174.308594-174.308594 0-96.265625 78.039063-174.304687 174.308594-174.304687 96.265625 0 174.304688 78.039062 174.304688 174.304687zm0 0" fill="#f7a35f"/><path d="m254.671875 478.273438c-95.660156-.710938-172.976563-78.472657-172.976563-174.300782 0-95.824218 77.316407-173.585937 172.976563-174.296875-56.171875 1.207031-101.492187 78.777344-101.492187 174.296875 0 95.523438 45.320312 173.09375 101.492187 174.300782zm0 0" fill="#f4702f"/><path d="m272.789062 316.832031c-10.8125 4.066407-22.761718 4.066407-33.578124 0-4.972657-1.867187-10.570313-.015625-13.347657 4.511719-.039062.0625-.074219.128906-.113281.191406-3.574219 5.832032-1.046875 13.550782 5.34375 15.988282 16.03125 6.109374 33.785156 6.109374 49.816406 0 6.390625-2.4375 8.917969-10.15625 5.34375-15.988282-.039062-.0625-.078125-.128906-.117187-.191406-2.773438-4.527344-8.371094-6.378906-13.347657-4.511719zm0 0" fill="#f96eb3"/><path d="m328.417969 319.882812c5.773437-6.191406 13.148437-11.050781 21.773437-13.84375 8.621094-2.792968 17.445313-3.175781 25.75-1.542968 12.328125-13.226563 17.316406-32.5625 11.351563-50.988282-8.753907-27.046874-37.78125-41.875-64.828125-33.121093-27.050782 8.757812-41.878906 37.78125-33.125 64.832031 5.964844 18.421875 21.335937 31.167969 39.078125 34.664062zm0 0" fill="#fff"/><path d="m184.578125 319.882812c-5.769531-6.191406-13.144531-11.050781-21.769531-13.84375-8.625-2.792968-17.449219-3.175781-25.753906-1.542968-12.328126-13.226563-17.316407-32.5625-11.351563-50.988282 8.757813-27.046874 37.78125-41.875 64.832031-33.121093 27.046875 8.757812 41.878906 37.78125 33.121094 64.832031-5.964844 18.421875-21.335938 31.167969-39.078125 34.664062zm0 0" fill="#fff"/><path d="m354.726562 269.519531c0 9.613281-7.792968 17.40625-17.40625 17.40625-9.609374 0-17.402343-7.792969-17.402343-17.40625 0-9.609375 7.792969-17.402343 17.402343-17.402343 9.613282 0 17.40625 7.792968 17.40625 17.402343zm0 0" fill="#232638"/><path d="m192.085938 269.519531c0 9.613281-7.792969 17.40625-17.40625 17.40625-9.609376 0-17.402344-7.792969-17.402344-17.40625 0-9.609375 7.792968-17.402343 17.402344-17.402343 9.613281 0 17.40625 7.792968 17.40625 17.402343zm0 0" fill="#232638"/><path d="m386.824219 349.203125c0-8.960937-12.714844-16.226563-28.394531-16.226563-15.683594 0-28.398438 7.265626-28.398438 16.226563s12.714844 16.226563 28.398438 16.226563c15.679687 0 28.394531-7.265626 28.394531-16.226563zm0 0" fill="#f96eb3"/><path d="m181.972656 349.203125c0-8.960937-12.714844-16.226563-28.398437-16.226563-15.679688 0-28.394531 7.265626-28.394531 16.226563s12.714843 16.226563 28.394531 16.226563c15.683593 0 28.398437-7.265626 28.398437-16.226563zm0 0" fill="#f96eb3"/><g fill="#1a1a1a"><path d="m370.285156 126.542969c-1.238281-19.414063-8.402344-33.355469-21.378906-41.453125-18.277344-11.40625-44.328125-8.082032-64.738281-2.460938 1.753906-7.554687 2.859375-15.210937 3.285156-22.921875 7.796875 4.238281 17.453125 6.285157 26.933594 6.285157 3.0625 0 6.113281-.214844 9.070312-.636719 8.578125-1.222657 16.042969-3.980469 22.0625-7.949219 19.445313 3.542969 37.335938-1.777344 38.464844-2.125 4.011719-1.226562 6.261719-5.46875 5.039063-9.480469-1.21875-4.015625-5.460938-6.277343-9.484376-5.066406-.175781.054687-9.542968 2.808594-21.207031 2.617187 2.375-4.699218 3.648438-9.960937 3.648438-15.625 0-19.527343-12.277344-24.925781-17.554688-26.339843-12.308593-3.296875-27.425781 2.863281-33.699219 13.730469-5.113281 8.859374-3.320312 18.996093 4.800782 27.117187 2.941406 2.941406 6.078125 5.382813 9.332031 7.410156-1.417969.316407-2.640625.523438-3.550781.652344-15.996094 2.28125-31.183594-3.144531-34.390625-12.136719-.90625-8.699218-2.644531-17.386718-5.238281-25.964844-.953126-3.164062-3.839844-5.34375-7.140626-5.40625-16.007812-.296874-31.722656 1.445313-46.734374 5.171876-2.351563.585937-4.285157 2.253906-5.207032 4.5-.917968 2.242187-.710937 4.789062.554688 6.855468 11.230468 18.332032 15.027344 40.214844 10.8125 61.109375-21.070313-6.574219-50.703125-11.921875-70.867188.664063-12.976562 8.097656-20.140625 22.039062-21.378906 41.453125-81.03125 18.347656-141.71875 90.929687-141.71875 177.429687 0 49.613282 19.605469 95.96875 55.207031 130.53125 1.476563 1.4375 3.386719 2.148438 5.296875 2.148438 1.984375 0 3.96875-.769532 5.457032-2.304688 2.925781-3.015625 2.855468-7.832031-.160157-10.757812-32.621093-31.671875-50.589843-74.152344-50.589843-119.617188 0-91.917968 74.785156-166.699218 166.703124-166.699218.425782 0 .847657.011718 1.273438.015624-64.160156 28.136719-109.097656 92.257813-109.097656 166.683594 0 74.429688 44.933594 138.546875 109.09375 166.683594-.421875.003906-.847656.019531-1.269532.019531-32.746093 0-64.4375-9.484375-91.648437-27.429687-3.507813-2.3125-8.226563-1.34375-10.539063 2.164062-2.308593 3.507813-1.34375 8.222656 2.164063 10.535156 29.703125 19.589844 64.292969 29.941407 100.023437 29.941407 12.488282 0 24.945313-1.285157 37.054688-3.792969 11.960938 2.484375 24.34375 3.796875 37.03125 3.796875s25.074219-1.3125 37.035156-3.796875c12.109375 2.511719 24.5625 3.796875 37.050782 3.796875 100.304687 0 181.910156-81.605469 181.910156-181.914063.003906-86.5-60.683594-159.085937-141.710938-177.433593zm-46.382812-103.820313c2.335937-4.042968 8.445312-7.003906 13.644531-7.003906 1.027344 0 2.023437.117188 2.941406.363281 1.554688.414063 6.28125 1.683594 6.28125 11.644531 0 5.625-1.992187 9.871094-4.902343 13.074219-5.582032-1.804687-10.992188-4.734375-15.578126-9.324219-4.71875-4.714843-3.085937-7.546874-2.386718-8.753906zm-82.75 1.917969c8.953125-1.632813 18.144531-2.523437 27.46875-2.652344 1.523437 5.988281 2.585937 12.023438 3.199218 18.0625.011719.175781.027344.355469.046876.53125 1.566406 16.109375-.105469 32.242188-5 47.691407-4.628907 1.742187-8.375 3.335937-10.867188 4.449218-1.867188-.835937-4.464844-1.945312-7.589844-3.183594 4.898438-21.847656 2.332032-44.730468-7.257812-64.898437zm-59.238282 97.417969c-8.378906 0-16.625.582031-24.707031 1.6875 1.429688-12.339844 6.027344-20.804688 13.933594-25.746094 21.992187-13.746094 66.304687 2.511719 81.519531 9.933594 2.105469 1.03125 4.570313 1.03125 6.679688.003906 15.214844-7.425781 59.527344-23.679688 81.523437-9.9375 7.90625 4.941406 12.5 13.40625 13.933594 25.746094-8.085937-1.101563-16.332031-1.6875-24.710937-1.6875-12.484376 0-24.933594 1.285156-37.046876 3.796875-12.058593-2.496094-24.453124-3.792969-37.039062-3.792969-12.683594 0-25.066406 1.308594-37.027344 3.792969-12.109375-2.507813-24.570312-3.796875-37.058594-3.796875zm148.171876 348.617187c-.421876 0-.84375-.015625-1.265626-.019531 64.160157-28.136719 109.09375-92.253906 109.09375-166.683594 0-31.585937-8.222656-62.703125-23.785156-89.988281-2.078125-3.648437-6.726562-4.921875-10.375-2.839844-3.648437 2.082031-4.917968 6.726563-2.835937 10.375 14.25 24.992188 21.785156 53.503907 21.785156 82.453125 0 91.917969-74.78125 166.699219-166.699219 166.699219-91.921875 0-166.703125-74.78125-166.703125-166.699219 0-91.917968 74.78125-166.699218 166.703125-166.699218 50.234375 0 97.304688 22.332031 129.136719 61.273437 2.65625 3.253906 7.449219 3.734375 10.699219 1.078125 3.253906-2.660156 3.734375-7.453125 1.078125-10.703125-18.5625-22.707031-41.875-40.234375-67.921875-51.636719.363281-.003906.726562-.015625 1.089844-.015625 91.917968 0 166.703124 74.785157 166.703124 166.703125 0 91.917969-74.785156 166.703125-166.703124 166.703125zm0 0"/><path d="m292.625 317.371094c-4.652344-7.589844-14.117188-10.8125-22.511719-7.65625-9.097656 3.421875-19.121093 3.421875-28.222656 0-8.394531-3.15625-17.859375.066406-22.523437 7.671875l-.105469.175781c-2.910157 4.75-3.546875 10.5-1.75 15.773438 1.777343 5.222656 5.742187 9.335937 10.871093 11.292968 8.90625 3.394532 18.261719 5.089844 27.617188 5.089844s18.714844-1.695312 27.617188-5.089844c5.128906-1.957031 9.09375-6.074218 10.871093-11.292968 1.796875-5.273438 1.160157-11.023438-1.769531-15.804688zm-12.535156 11.058594c-.183594.542968-.675782 1.519531-1.890625 1.984374-14.3125 5.457032-30.082031 5.457032-44.394531 0-1.214844-.464843-1.707032-1.441406-1.894532-1.984374-.195312-.574219-.414062-1.71875.328125-2.925782l.113281-.183594c.621094-1.019531 1.742188-1.601562 2.914063-1.601562.421875 0 .851563.078125 1.269531.234375 12.550782 4.71875 26.378906 4.71875 38.933594 0 1.578125-.59375 3.335938-.019531 4.171875 1.351563l.128906.203124c.738281 1.203126.519531 2.347657.320313 2.921876zm0 0"/><path d="m365.199219 216.746094c-14.054688-7.179688-30.0625-8.457032-45.078125-3.59375-15.015625 4.859375-27.238282 15.273437-34.417969 29.328125-7.179687 14.054687-8.457031 30.0625-3.597656 45.078125 6.601562 20.394531 23.785156 35.636718 44.84375 39.785156.492187.097656.984375.144531 1.472656.144531 2.085937 0 4.109375-.863281 5.5625-2.421875 5.054687-5.417968 11.46875-9.496094 18.550781-11.789062 7.078125-2.292969 14.664063-2.746094 21.9375-1.316406 2.582032.507812 5.238282-.351563 7.03125-2.277344 14.636719-15.699219 19.628906-38.121094 13.027344-58.515625-4.863281-15.015625-15.277344-27.238281-29.332031-34.421875zm7.71875 79.585937c-8.402344-.984375-16.984375-.148437-25.070313 2.46875-8.089844 2.617188-15.53125 6.96875-21.765625 12.691407-13.886719-4.046876-25.007812-14.722657-29.503906-28.617188-3.609375-11.148438-2.664063-23.039062 2.671875-33.472656 5.328125-10.433594 14.40625-18.171875 25.554688-21.777344 4.449218-1.441406 9.015624-2.15625 13.558593-2.15625 6.847657 0 13.644531 1.621094 19.914063 4.824219 10.4375 5.332031 18.171875 14.410156 21.78125 25.558593 4.496094 13.894532 1.742187 29.0625-7.140625 40.480469zm0 0"/><path d="m138.527344 311.960938c7.273437-1.433594 14.859375-.976563 21.9375 1.316406 7.082031 2.289062 13.496094 6.367187 18.550781 11.789062 1.453125 1.558594 3.472656 2.421875 5.5625 2.421875.488281 0 .980469-.050781 1.46875-.144531 21.058594-4.148438 38.246094-19.390625 44.84375-39.785156 10.035156-30.996094-7.019531-64.375-38.015625-74.410156-15.015625-4.859376-31.023438-3.582032-45.078125 3.597656-14.050781 7.179687-24.46875 19.40625-29.328125 34.417968-6.601562 20.394532-1.613281 42.816407 13.023438 58.519532 1.792968 1.921875 4.453124 2.78125 7.035156 2.277344zm-5.585938-56.109376c3.609375-11.148437 11.34375-20.226562 21.777344-25.558593 10.4375-5.328125 22.324219-6.277344 33.472656-2.667969 23.015625 7.449219 35.679688 32.234375 28.230469 55.25-4.5 13.894531-15.617187 24.570312-29.507813 28.617188-6.230468-5.722657-13.675781-10.074219-21.761718-12.691407-5.898438-1.90625-12.058594-2.871093-18.21875-2.871093-2.289063 0-4.578125.132812-6.851563.402343-8.886719-11.417969-11.640625-26.585937-7.140625-40.480469zm0 0"/><path d="m337.324219 244.511719c-13.792969 0-25.011719 11.21875-25.011719 25.007812 0 13.792969 11.21875 25.011719 25.011719 25.011719 13.789062 0 25.007812-11.21875 25.007812-25.011719 0-13.789062-11.21875-25.007812-25.007812-25.007812zm0 34.804687c-5.40625 0-9.800781-4.394531-9.800781-9.796875 0-5.402343 4.394531-9.796875 9.800781-9.796875 5.402343 0 9.796875 4.394532 9.796875 9.796875 0 5.402344-4.394532 9.796875-9.796875 9.796875zm0 0"/><path d="m174.679688 294.53125c13.792968 0 25.011718-11.21875 25.011718-25.011719 0-13.789062-11.21875-25.011719-25.011718-25.011719-13.789063 0-25.007813 11.222657-25.007813 25.011719 0 13.792969 11.21875 25.011719 25.007813 25.011719zm0-34.808594c5.40625 0 9.800781 4.394532 9.800781 9.796875 0 5.40625-4.394531 9.800781-9.800781 9.800781-5.402344 0-9.796876-4.394531-9.796876-9.800781 0-5.402343 4.394532-9.796875 9.796876-9.796875zm0 0"/><path d="m358.429688 325.371094c-20.523438 0-36.003907 10.246094-36.003907 23.832031s15.480469 23.832031 36.003907 23.832031c20.523437 0 36-10.246094 36-23.832031s-15.476563-23.832031-36-23.832031zm0 32.453125c-12.898438 0-20.789063-5.582031-20.789063-8.621094s7.890625-8.617187 20.789063-8.617187c12.894531 0 20.789062 5.578124 20.789062 8.617187s-7.894531 8.621094-20.789062 8.621094zm0 0"/><path d="m153.574219 325.371094c-20.523438 0-36 10.246094-36 23.832031s15.476562 23.832031 36 23.832031c20.523437 0 36.003906-10.246094 36.003906-23.832031s-15.480469-23.832031-36.003906-23.832031zm0 32.453125c-12.894531 0-20.789063-5.582031-20.789063-8.621094s7.894532-8.617187 20.789063-8.617187c12.898437 0 20.789062 5.578124 20.789062 8.617187s-7.890625 8.621094-20.789062 8.621094zm0 0"/></g></svg>